<svg xmlns="http://www.w3.org/2000/svg" viewBox="0 0 512 512" xmlns:v="https://vecta.io/nano"><path d="M366.95 199.22v64.51h19.63v163.65l-13.04 13.04H252.79l-13.04-13.04v-80.07h54.13l58.62-58.62V176.51l-24.54-24.54 19.21-22.58V60.11L295.99-.05H34.03v71.66h26.22v204.04H34.03v71.66h134.21v109.66l54.97 54.97h180.06l54.97-54.97V263.73h19.63v-64.51H366.95h0zM131.91 71.75h130.84l12.62 14.86v16.55l-12.62 14.86H131.91V71.75h0zm36.46 191.98v11.92h-36.32v-86.1h132.24l16.69 16.69v52.87l-16.69 16.55h-24.4v-11.92h19.63v-64.51H148.6v64.51h19.77z" fill="#fdbb30"/><path d="M378.59 210.72v41.51h19.63v179.93l-19.77 19.77H248.17l-19.78-19.77v-84.85h-48.52v104.9l48.24 48.1H398.5l48.24-48.1V252.23h19.63v-41.51zm-218.35 41.51h19.63v23.42h48.52v-23.42h19.64v-41.51h-87.79zm180.62 31.7V181.41l-28.75-28.75 23.28-27.49V64.46l-44.88-52.87H45.67v48.38h26.22v227.18H45.67v48.38h243.45l51.74-51.6h0zM120.41 60.11h147.81l18.93 22.16v25.1l-18.93 22.16H120.41V60.11zm0 227.18V178.05h148.65l23.42 23.42v62.4l-23.42 23.42H120.41h0zM448 491.34a10.36 10.36 0 0 0-10.38 10.38c0 5.75 4.63 10.24 10.38 10.24s10.24-4.63 10.24-10.24c0-5.76-4.63-10.38-10.24-10.38m0 18.37a8.14 8.14 0 0 1-8.13-8.13 8.14 8.14 0 0 1 8.13-8.13 8.14 8.14 0 0 1 8.13 8.13c.01 4.48-3.64 8.13-8.13 8.13m4.21-10.52c0-1.96-1.54-3.51-3.51-3.51h-5.05v11.78h2.24v-4.77h1.54l2.24 4.77h2.38l-2.38-5.05c1.56-.28 2.54-1.68 2.54-3.22m-3.51 1.4h-2.8v-2.52h2.8c.7 0 1.26.56 1.26 1.26s-.56 1.26-1.26 1.26" fill="#004833"/></svg>